<svg width="200" height="200" viewBox="0 0 200 200" fill="none" xmlns="http://www.w3.org/2000/svg">
  <circle cx="100" cy="100" r="100" fill="#E2E8F0"/>
  <path d="M100 0C44.7715 0 0 44.7715 0 100C0 155.228 44.7715 200 100 200C155.228 200 200 155.228 200 100C200 44.7715 155.228 0 100 0ZM52.5 77.5C52.5 59.5507 73.7665 45 100 45C126.234 45 147.5 59.5507 147.5 77.5C147.5 90.966 126.234 105.516 100 105.516C73.7665 105.516 52.5 90.966 52.5 77.5ZM100 178C73.453 178 50.151 166.427 35.151 148.112C37.5645 136.212 55.485 130 100 130C144.515 130 162.436 136.212 164.849 148.112C149.849 166.427 126.547 178 100 178Z" fill="#94A3B8"/>
</svg>
